# xmcd
#
# Track frame offsets:
#	150
#	13272
#	33517
#	51340
#	67582
#	89080
#	96872
#	107312
#	124697
#	137645
#
# Disc length: 2025 seconds
# Revision: 0
# Processed by: cddbd v1.5.2PL0 Copyright (c) Steve Scherf et al.
# Submitted via: dBpowerAMP V12.0
#
DISCID=8007e70a
DTITLE=Various Artist - A Country Christmas Collection  [Disc 3]
DYEAR=2001
DGENRE=Country
TTITLE0=Oak Ridge Boys - Go Tell It On the Mountain
TTITLE1=Razzy Bailey - Peace On Earth (A Song for All Seasons)
TTITLE2=Michael Johnson - There's A New Kid In Town
TTITLE3=John Anderson - What Child Is This
TTITLE4=Paul Overstreet - Merry Christmas, Mary
TTITLE5=Baillie and the Boys - In A Manger
TTITLE6=Jim Reeves - O Little Town of Bethlehem
TTITLE7=Ronnie Milsap - O Holy Night
TTITLE8=Steve Wariner - Noel, Noel
TTITLE9=Don Williams - O Come All Ye Faithful
EXTD=
EXTT0=
EXTT1=
EXTT2=
EXTT3=
EXTT4=
EXTT5=
EXTT6=
EXTT7=
EXTT8=
EXTT9=
PLAYORDER=
